<svg width="44" height="44" viewBox="0 0 44 44" fill="none" xmlns="http://www.w3.org/2000/svg">
<circle cx="22" cy="22" r="22" fill="#6EEBE7" fill-opacity="0.21"/>
<path d="M17.2221 7.54119C16.7541 7.64847 16.3782 7.87887 16.0103 8.27739C15.5884 8.72991 15.5653 8.79903 15.1744 10.3711C14.998 11.0692 14.8291 11.7669 14.7831 11.9206L14.7064 12.2122H11.0023C7.85019 12.2122 7.24431 12.2277 6.88395 12.3349C5.76435 12.6647 4.85139 13.5543 4.50651 14.6742C4.36791 15.1185 4.36035 15.5253 4.36035 24.3679C4.36035 33.211 4.36791 33.6174 4.50615 34.0624C4.86651 35.2281 5.87883 36.1716 7.05243 36.4398C7.52043 36.5472 36.4807 36.5472 36.9483 36.4398C38.1216 36.1713 39.1342 35.2281 39.4945 34.0624C39.6328 33.6174 39.6403 33.211 39.6403 24.3759C39.6403 16.1848 39.6249 15.1109 39.5176 14.7351C39.1879 13.6155 38.2983 12.7025 37.1784 12.3576C36.7489 12.2197 36.4267 12.2118 32.9983 12.2118H29.2939L29.2173 11.9202C29.1712 11.7669 29.0028 11.0688 28.8264 10.3708C28.6575 9.67275 28.4581 8.98263 28.3969 8.82927C28.228 8.44587 27.6376 7.88607 27.1771 7.67115L26.7937 7.49475L22.1538 7.47927C19.5919 7.47207 17.3833 7.50267 17.2221 7.54119ZM26.7556 9.27423C26.9701 9.46611 27.0318 9.64251 27.3309 10.8312C27.5227 11.5674 27.6762 12.1809 27.6762 12.1888C27.6762 12.2039 25.1223 12.2118 22.0008 12.2118C18.8791 12.2118 16.3253 12.2043 16.3253 12.1888C16.3253 12.1812 16.4787 11.5674 16.6705 10.8312C16.9697 9.64251 17.0309 9.46611 17.2458 9.27423L17.4759 9.06723H22.0011H26.5263L26.7556 9.27423ZM36.7183 13.8685C37.0099 13.9528 37.2319 14.091 37.4929 14.3517C38.1525 15.0112 38.1064 14.2905 38.1064 24.3298C38.1064 34.147 38.1295 33.6714 37.6078 34.2774C37.462 34.4538 37.1784 34.6762 36.9714 34.776L36.6109 34.9524L22.1617 34.9753C6.26258 34.9984 7.23675 35.0214 6.63843 34.5304C6.48507 34.4001 6.26259 34.1239 6.13983 33.9321L5.93283 33.5718V24.3684V15.1649L6.10167 14.8503C6.32415 14.4283 6.83787 13.9989 7.27527 13.861C7.56687 13.7767 9.9137 13.7537 21.9701 13.7537C34.8085 13.7458 36.3579 13.7613 36.7183 13.8685Z" fill="#6EEBE7"/>
<path d="M29.8237 15.74V16.5068H33.1598H36.496V15.74V14.9732H33.1598H29.8237V15.74Z" fill="#6EEBE7"/>
<path d="M20.5042 15.8627C16.9687 16.4916 14.1999 19.2373 13.5094 22.7884C13.3485 23.6553 13.3485 25.0891 13.517 25.9636C14.1534 29.277 16.5849 31.854 19.9135 32.751C20.5808 32.9274 20.7955 32.9505 21.9997 32.9505C23.2039 32.9505 23.4184 32.9274 24.0859 32.751C27.4069 31.8535 29.8534 29.2612 30.4823 25.9636C30.9043 23.7471 30.3751 21.27 29.0711 19.4217C27.1459 16.691 23.756 15.2798 20.5042 15.8627ZM22.8355 17.3506C24.4843 17.5576 25.9877 18.3247 27.1459 19.5441C27.9205 20.3649 28.4422 21.285 28.7947 22.4586C28.9865 23.08 29.0095 23.2485 29.0095 24.3684C29.0095 25.4805 28.9865 25.6569 28.8025 26.2704C28.0048 28.8627 26.0186 30.7188 23.4184 31.2862C22.7282 31.4395 21.2861 31.4395 20.5805 31.2862C17.3899 30.5961 15.1121 27.9192 14.9663 24.6751C14.8742 22.5738 15.6413 20.6791 17.1674 19.2373C18.7323 17.7725 20.7649 17.0975 22.8355 17.3506Z" fill="#6EEBE7"/>
</svg>
